<svg width="512" height="512" viewBox="0 0 512 512" fill="none" xmlns="http://www.w3.org/2000/svg">
<path d="M260.096 252C260.096 285.093 266.612 317.862 279.271 348.436C291.93 379.01 310.486 406.791 333.877 430.191C357.268 453.591 385.038 472.153 415.601 484.818C446.163 497.482 478.919 504 512 504L512 381.928C494.944 381.928 478.055 378.568 462.298 372.038C446.54 365.509 432.222 355.938 420.162 343.873C408.101 331.808 398.535 317.485 392.008 301.721C385.481 285.958 382.121 269.062 382.121 252H260.096Z" fill="black"/>
<path d="M503.808 252C503.808 202.159 489.034 153.438 461.355 111.996C433.675 70.5552 394.333 38.2557 348.304 19.1825C302.274 0.109187 251.625 -4.88125 202.76 4.84222C153.895 14.5657 109.01 38.5664 73.7811 73.8092C38.5517 109.052 14.5601 153.954 4.84038 202.837C-4.87939 251.72 0.109146 302.389 19.1752 348.436C38.2412 394.483 70.5283 433.84 111.954 461.53C153.379 489.22 202.082 504 251.904 504V381.928C226.216 381.928 201.106 374.308 179.747 360.031C158.389 345.755 141.742 325.463 131.912 301.721C122.081 277.98 119.509 251.856 124.521 226.652C129.532 201.449 141.902 178.298 160.066 160.127C178.23 141.956 201.372 129.582 226.566 124.568C251.76 119.555 277.874 122.128 301.607 131.962C325.339 141.796 345.623 158.449 359.894 179.816C374.166 201.182 381.783 226.303 381.783 252H503.808Z" fill="black"/>
</svg>
